<svg version="1.1" viewBox="0.0 0.0 60.0 80.0" fill="none" stroke="none" stroke-linecap="square" stroke-miterlimit="10" xmlns:xlink="http://www.w3.org/1999/xlink" xmlns="http://www.w3.org/2000/svg"><clipPath id="p.0"><path d="m0 0l60.0 0l0 80.0l-60.0 0l0 -80.0z" clip-rule="nonzero"/></clipPath><g clip-path="url(#p.0)"><path fill="#000000" fill-opacity="0.0" d="m0 0l60.0 0l0 80.0l-60.0 0z" fill-rule="evenodd"/><path fill="#000000" fill-opacity="0.0" d="m21.836153 6.431034c0.7510929 -0.5406828 2.5813637 -2.6566057 4.5065613 -3.2440946c1.9251976 -0.5874891 4.5796146 -0.8451445 7.0446186 -0.28083992c2.465004 0.56430435 5.374893 0.9868765 7.745407 3.6666667c2.3705177 2.6797895 6.6430435 7.803149 6.4776917 12.412074c-0.16535568 4.608923 -7.3289604 9.035433 -7.469818 15.24147c-0.1408577 6.2060356 6.8818893 15.649605 6.624672 21.994751c-0.2572174 6.3451424 -5.5625534 12.691597 -8.167976 16.07611c-2.6054268 3.3845139 -5.1640434 3.3845139 -7.464569 4.2309723c-2.3005238 0.84645844 -4.3433933 0.8005295 -6.338581 0.8477707c-1.9951897 0.04724121 -3.919073 0.16403961 -5.6325474 -0.56430054c-1.7134724 -0.7283478 -3.4273834 -1.8311462 -4.6482935 -3.8057785c-1.2209101 -1.9746246 -1.9965 -4.986 -2.677165 -8.041992c-0.680665 -3.055996 -1.8753281 -6.8845177 -1.4068241 -10.293964c0.46850395 -3.4094505 4.124234 -6.754158 4.217848 -10.162731c0.09361267 -3.4085732 -3.2580929 -7.468502 -3.656168 -10.288712c-0.39807606 -2.8202114 1.0564299 -5.5271225 1.2677164 -6.6325474" fill-rule="evenodd"/><path stroke="#783f04" stroke-width="4.0" stroke-linejoin="round" stroke-linecap="butt" d="m21.836153 6.431034c0.7510929 -0.5406828 2.5813637 -2.6566057 4.5065613 -3.2440946c1.9251976 -0.5874891 4.5796146 -0.8451445 7.0446186 -0.28083992c2.465004 0.56430435 5.374893 0.9868765 7.745407 3.6666667c2.3705177 2.6797895 6.6430435 7.803149 6.4776917 12.412074c-0.16535568 4.608923 -7.3289604 9.035433 -7.469818 15.24147c-0.1408577 6.2060356 6.8818893 15.649605 6.624672 21.994751c-0.2572174 6.3451424 -5.5625534 12.691597 -8.167976 16.07611c-2.6054268 3.3845139 -5.1640434 3.3845139 -7.464569 4.2309723c-2.3005238 0.84645844 -4.3433933 0.8005295 -6.338581 0.8477707c-1.9951897 0.04724121 -3.919073 0.16403961 -5.6325474 -0.56430054c-1.7134724 -0.7283478 -3.4273834 -1.8311462 -4.6482935 -3.8057785c-1.2209101 -1.9746246 -1.9965 -4.986 -2.677165 -8.041992c-0.680665 -3.055996 -1.8753281 -6.8845177 -1.4068241 -10.293964c0.46850395 -3.4094505 4.124234 -6.754158 4.217848 -10.162731c0.09361267 -3.4085732 -3.2580929 -7.468502 -3.656168 -10.288712c-0.39807606 -2.8202114 1.0564299 -5.5271225 1.2677164 -6.6325474" fill-rule="evenodd"/></g></svg>